<?xml version="1.0" standalone="no"?>
<!DOCTYPE svg PUBLIC "-//W3C//DTD SVG 20010904//EN"
 "http://www.w3.org/TR/2001/REC-SVG-20010904/DTD/svg10.dtd">
<svg version="1.0" xmlns="http://www.w3.org/2000/svg"
 width="900.000000pt" height="900.000000pt" viewBox="0 0 900.000000 900.000000"
 preserveAspectRatio="xMidYMid meet">
<metadata>
Created by potrace 1.10, written by Peter Selinger 2001-2011
</metadata>
<g transform="translate(0.000000,900.000000) scale(0.100000,-0.100000)"
fill="#000000" stroke="none">
<path d="M4700 7530 c-25 -5 -65 -9 -90 -9 -25 -1 -65 -7 -90 -15 -25 -8 -76
-24 -115 -35 -103 -30 -147 -47 -245 -95 -262 -131 -470 -330 -637 -611 -82
-139 -178 -387 -222 -575 -5 -25 -17 -75 -26 -111 -8 -36 -15 -83 -15 -105 0
-21 -7 -74 -15 -117 -8 -43 -15 -119 -15 -167 0 -101 -7 -114 -70 -125 -21 -4
-68 -16 -102 -27 -35 -11 -79 -24 -98 -28 -37 -9 -188 -60 -230 -78 -14 -6
-79 -32 -145 -58 -129 -51 -344 -154 -477 -230 -611 -349 -1059 -812 -1255
-1299 -24 -60 -48 -126 -53 -145 -4 -19 -13 -48 -18 -65 -59 -172 -67 -504
-17 -710 35 -147 124 -341 207 -450 73 -96 149 -183 204 -235 62 -58 255 -210
267 -210 3 0 27 -15 54 -33 105 -71 319 -166 493 -218 36 -11 79 -25 95 -30
17 -6 59 -17 95 -25 36 -8 83 -19 105 -24 107 -24 289 -52 428 -65 191 -18
713 -2 831 25 23 5 61 10 86 10 25 0 61 5 80 10 19 6 87 21 150 35 258 54 618
165 795 245 22 10 67 30 100 45 33 15 93 43 133 61 40 19 78 34 83 34 6 0 48
-26 92 -59 175 -125 258 -176 482 -290 179 -92 297 -139 470 -189 68 -19 93
-25 259 -57 108 -21 440 -21 539 0 176 37 224 49 252 60 17 7 48 18 70 25 180
57 418 222 568 395 111 127 183 235 267 405 18 36 36 73 41 83 46 88 130 392
160 582 18 109 18 748 1 860 -44 278 -115 596 -154 685 -6 14 -14 41 -19 60
-8 37 -50 162 -74 220 -7 19 -30 78 -51 130 -20 52 -52 129 -71 170 -20 41
-39 84 -44 95 -5 11 -13 27 -18 35 -5 8 -26 49 -47 90 -21 41 -45 89 -54 105
-80 143 -108 192 -161 274 -207 325 -449 619 -715 868 -175 165 -185 173 -354
302 -271 206 -586 380 -835 461 -38 13 -86 29 -105 36 -19 7 -69 20 -110 29
-41 9 -88 21 -105 27 -75 25 -466 45 -555 28z m363 -181 c140 -13 371 -67 482
-114 17 -7 66 -27 110 -45 413 -171 830 -480 1204 -891 97 -107 207 -236 245
-290 248 -346 346 -506 477 -779 70 -145 83 -174 119 -265 17 -44 37 -93 44
-110 21 -48 73 -194 95 -270 11 -38 32 -107 46 -153 14 -46 25 -94 25 -107 0
-13 5 -36 11 -52 12 -29 32 -123 49 -232 6 -35 13 -67 16 -72 22 -36 37 -573
20 -774 -18 -234 -96 -523 -196 -730 -189 -391 -487 -650 -860 -746 -41 -10
-88 -24 -105 -30 -42 -16 -464 -24 -546 -10 -35 5 -95 18 -134 27 -38 8 -86
19 -105 24 -19 4 -51 14 -70 21 -389 140 -706 324 -1040 603 -109 91 -400 377
-458 451 -22 28 -70 88 -108 135 -63 78 -97 124 -226 310 -143 207 -375 647
-461 875 -8 22 -26 69 -40 105 -14 36 -31 85 -37 109 -6 24 -17 52 -23 63 -10
16 -8 22 12 39 13 10 35 19 50 19 14 0 51 7 81 15 30 8 78 15 105 15 28 0 75
7 105 15 38 11 135 17 320 22 l266 6 15 -24 c8 -13 34 -67 57 -119 96 -219
254 -499 410 -725 246 -356 556 -689 836 -898 164 -123 238 -170 410 -261 79
-42 243 -105 346 -134 87 -24 110 -27 285 -27 181 0 194 1 277 28 252 81 426
235 533 473 14 33 32 73 40 89 23 51 67 197 76 255 4 30 13 82 19 115 14 78
14 430 0 520 -6 39 -15 109 -20 157 -5 47 -14 97 -19 110 -5 12 -17 64 -26
113 -9 50 -23 104 -31 122 -8 17 -14 43 -14 57 0 14 -6 40 -14 58 -8 18 -31
85 -51 148 -36 115 -120 336 -134 355 -5 6 -16 32 -27 59 -32 86 -147 309
-261 506 -40 69 -180 274 -260 380 -229 306 -547 625 -798 803 -257 183 -487
296 -690 342 -33 8 -78 19 -100 24 -66 17 -344 14 -406 -5 -102 -30 -211 -77
-273 -117 -78 -51 -195 -170 -252 -257 -97 -148 -184 -390 -184 -513 0 -23 -5
-60 -11 -82 -7 -22 -14 -119 -18 -215 l-6 -175 -175 -6 c-165 -6 -362 -25
-524 -51 -39 -6 -84 -11 -101 -12 l-30 -1 0 100 c0 125 17 241 60 420 44 184
72 262 155 430 182 372 479 628 845 730 111 31 140 35 265 44 183 12 191 12
323 0z m397 -484 c376 -95 767 -370 1188 -836 142 -157 390 -505 491 -689 28
-52 56 -102 61 -110 44 -70 181 -370 235 -515 15 -38 32 -86 40 -105 19 -48
64 -188 75 -230 5 -19 18 -69 29 -110 49 -186 72 -327 93 -578 9 -100 9 -162
0 -255 -23 -236 -51 -352 -128 -513 -99 -209 -240 -329 -454 -384 -59 -16
-208 -32 -230 -25 -31 10 -25 24 40 82 156 141 293 394 340 628 6 33 18 88 26
122 20 88 20 521 0 618 -8 39 -24 117 -35 175 -56 290 -135 521 -276 810 -47
95 -121 231 -153 281 -9 15 -35 55 -56 90 -115 185 -295 408 -461 572 -326
322 -624 501 -1035 622 -94 27 -282 39 -408 25 -64 -7 -125 -17 -135 -22 -10
-5 -40 -15 -65 -22 -26 -7 -55 -17 -64 -21 -74 -31 74 190 194 291 70 59 191
110 293 124 99 14 289 2 395 -25z m-355 -505 c531 -61 1159 -564 1567 -1255
93 -158 248 -481 248 -518 0 -4 9 -28 20 -52 11 -24 26 -69 34 -99 8 -31 18
-61 22 -68 4 -6 11 -28 14 -47 4 -20 15 -63 24 -96 10 -33 24 -98 32 -145 9
-47 19 -105 24 -130 25 -138 20 -545 -9 -635 -5 -17 -17 -64 -26 -105 -18 -76
-25 -96 -78 -210 -73 -160 -208 -309 -339 -375 -39 -19 -77 -35 -86 -35 -35 0
-235 91 -337 153 -106 65 -215 141 -215 151 0 7 21 37 46 66 143 168 289 438
357 660 46 150 56 200 69 348 46 512 -203 984 -691 1310 -93 62 -366 202 -393
202 -8 0 -18 4 -24 9 -8 8 -112 45 -244 86 -111 35 -300 70 -540 101 -74 9
-138 22 -142 28 -11 16 -9 272 3 331 5 28 12 68 15 90 9 65 24 92 62 118 167
110 340 145 587 117z m-480 -866 c400 -58 685 -147 959 -302 348 -196 600
-502 685 -832 36 -139 40 -456 6 -536 -8 -20 -15 -46 -15 -58 0 -24 -51 -180
-81 -246 -74 -165 -158 -305 -260 -435 -62 -79 -81 -82 -133 -24 l-37 40 18
29 c119 191 167 298 204 463 62 275 -80 606 -341 794 -269 193 -661 308 -1120
329 -158 7 -509 -12 -595 -32 -33 -7 -78 -14 -100 -14 -99 0 -625 -127 -704
-169 -11 -6 -26 -11 -35 -11 -52 0 -505 -199 -628 -277 -21 -12 -40 -23 -44
-23 -3 0 -26 -13 -51 -30 -24 -16 -46 -30 -48 -30 -6 0 -167 -113 -240 -168
-63 -48 -169 -140 -247 -214 -202 -193 -358 -459 -399 -683 -26 -140 -8 -332
41 -433 11 -23 25 -52 30 -65 40 -91 183 -250 300 -330 181 -125 476 -232 740
-268 36 -4 85 -13 110 -18 73 -16 694 -14 781 3 41 8 128 22 194 31 66 9 137
23 158 31 20 8 49 14 63 14 40 0 303 73 459 128 153 53 179 63 190 71 5 4 28
13 50 20 22 8 68 26 102 42 34 16 67 29 73 29 20 0 90 -64 90 -83 0 -10 -8
-20 -17 -23 -10 -3 -40 -16 -68 -29 -27 -12 -75 -33 -105 -45 -30 -12 -80 -32
-110 -45 -30 -12 -86 -33 -125 -45 -38 -12 -86 -28 -105 -35 -82 -31 -233 -74
-345 -99 -66 -15 -147 -33 -180 -41 -33 -8 -107 -19 -165 -25 -58 -6 -123 -16
-145 -21 -60 -15 -573 -23 -695 -11 -212 21 -358 44 -495 78 -77 20 -156 39
-175 44 -116 28 -401 157 -510 229 -121 82 -148 102 -221 168 -118 106 -214
220 -276 328 -106 185 -152 341 -160 545 -4 123 -2 148 25 280 62 299 186 546
406 810 292 349 750 677 1231 880 55 23 104 46 110 51 5 5 18 9 30 9 11 0 29
6 40 13 11 7 45 21 75 31 30 10 64 22 75 27 11 5 43 15 70 23 28 7 102 28 165
46 63 17 138 36 167 40 28 4 66 13 85 19 49 15 198 41 238 41 19 0 51 5 70 11
91 30 734 32 935 3z m265 -1004 c36 -5 88 -16 115 -24 28 -8 73 -22 100 -30
72 -21 131 -44 192 -72 51 -24 53 -28 74 -92 34 -108 36 -234 5 -367 -29 -127
-86 -255 -113 -255 -22 1 -118 138 -270 385 -74 120 -233 435 -233 460 0 14 6
16 33 11 17 -3 61 -10 97 -16z m-1470 -122 c11 -18 20 -39 20 -47 0 -16 54
-161 76 -204 8 -16 14 -34 14 -40 0 -17 136 -318 193 -427 71 -136 102 -191
174 -310 101 -167 187 -295 275 -413 33 -43 58 -85 56 -94 -5 -26 -166 -86
-423 -158 -94 -27 -330 -64 -475 -76 -293 -23 -676 10 -860 76 -97 34 -207 77
-220 85 -8 6 -33 19 -55 31 -172 91 -320 239 -389 389 -13 27 -29 57 -37 66
-9 11 -14 40 -13 78 0 89 26 128 190 291 145 144 283 254 448 356 45 28 88 55
96 60 152 95 494 242 740 319 74 23 140 43 145 45 21 7 26 4 45 -27z m2233
-240 c19 -24 42 -59 53 -78 10 -19 24 -42 30 -50 7 -8 24 -49 39 -90 36 -102
44 -218 20 -308 -39 -149 -143 -354 -182 -360 -13 -2 -40 20 -85 70 -93 104
-138 158 -138 169 0 5 11 26 24 47 26 42 73 139 103 217 36 89 55 187 60 308
7 136 18 147 76 75z m-3985 -1069 c43 -80 113 -168 193 -244 311 -293 820
-434 1436 -396 103 6 213 16 243 22 77 14 200 38 230 43 24 4 194 52 290 81
25 8 83 28 130 45 154 58 168 62 183 53 30 -16 187 -191 187 -207 0 -9 -12
-21 -27 -27 -16 -5 -41 -16 -58 -23 -38 -18 -172 -68 -245 -91 -30 -10 -71
-24 -90 -31 -19 -7 -69 -22 -110 -33 -41 -11 -91 -24 -110 -30 -73 -20 -224
-53 -313 -67 -50 -8 -121 -20 -157 -26 -84 -15 -761 -15 -850 -1 -169 28 -393
84 -414 104 -6 5 -16 9 -23 9 -7 0 -44 14 -81 32 -279 132 -431 293 -483 511
-27 111 -22 197 16 315 8 24 25 11 53 -39z"/>
<path d="M2320 7472 c-159 -49 -293 -161 -368 -307 -29 -58 -62 -176 -62 -222
0 -22 -6 -46 -14 -52 -8 -6 -54 -18 -104 -26 -197 -32 -341 -142 -435 -333
-40 -81 -57 -159 -57 -267 0 -169 51 -296 165 -411 152 -154 370 -214 725
-199 85 4 191 13 235 21 44 7 98 14 119 14 22 0 65 6 95 14 31 8 94 22 141 31
119 23 188 46 209 70 20 22 66 192 80 297 5 37 13 72 16 79 13 20 35 261 42
444 11 356 -40 540 -196 695 -78 78 -154 124 -256 155 -70 21 -262 19 -335 -3z
m321 -178 c209 -82 284 -251 284 -644 0 -166 -13 -303 -46 -495 -28 -162 -40
-205 -64 -221 -26 -17 -134 -41 -265 -59 -58 -8 -143 -20 -190 -27 -139 -21
-394 -16 -527 11 -139 28 -213 63 -276 130 -54 57 -80 112 -103 213 -14 60
-14 80 -4 132 42 201 149 312 351 361 63 15 83 16 122 7 67 -17 82 -15 117 18
l31 29 -7 93 c-5 79 -3 103 14 160 29 92 43 117 106 185 88 95 196 136 337
128 42 -2 96 -12 120 -21z"/>
<path d="M615 4201 c-31 -18 -83 -104 -144 -236 -18 -38 -36 -77 -41 -87 -18
-34 -81 -232 -87 -274 -5 -38 -2 -46 25 -73 50 -51 109 -36 141 34 7 17 19 54
27 83 8 29 23 73 34 97 11 24 20 49 20 55 0 13 83 180 124 250 41 71 33 126
-24 155 -37 19 -39 19 -75 -4z"/>
<path d="M8472 4097 c-27 -28 -30 -115 -8 -210 59 -251 61 -957 4 -1197 -6
-25 -14 -69 -18 -98 -5 -28 -18 -81 -29 -117 -12 -36 -24 -86 -28 -110 -5 -40
-3 -47 25 -74 37 -38 80 -41 116 -8 19 16 33 47 52 122 38 150 72 334 86 480
16 167 17 579 0 763 -11 131 -45 371 -58 415 -17 57 -102 77 -142 34z"/>
<path d="M321 3068 c-36 -37 -37 -49 -15 -167 31 -170 82 -319 154 -457 51
-95 62 -113 134 -209 156 -209 350 -384 586 -530 121 -74 413 -215 447 -215 8
0 28 -7 44 -16 17 -8 49 -16 71 -16 78 -1 120 82 69 136 -12 13 -57 36 -99 51
-424 152 -799 427 -1007 740 -102 153 -185 334 -205 446 -5 26 -13 64 -19 85
-6 22 -11 54 -11 72 0 60 -46 112 -99 112 -10 0 -33 -14 -50 -32z"/>
<path d="M8211 1931 c-17 -21 -31 -42 -31 -45 0 -20 -186 -270 -243 -327 -53
-52 -57 -112 -10 -149 39 -31 77 -25 124 17 107 96 300 371 314 445 5 28 2 40
-20 66 -22 26 -34 32 -65 32 -33 0 -43 -6 -69 -39z"/>
</g>
</svg>
